<svg xmlns="http://www.w3.org/2000/svg" viewBox="0 0 1180 540" width="1180" height="540" role="img" aria-label="Balavishvas Neo Tokyo anime developer banner">
<defs>
<linearGradient id="n"><stop stop-color="#ff4fd8"><animate attributeName="stop-color" values="#ff4fd8;#8b5cf6;#22d3ee;#ff4fd8" dur="7s" repeatCount="indefinite"/></stop><stop offset="1" stop-color="#22d3ee"><animate attributeName="stop-color" values="#22d3ee;#ff4fd8;#8b5cf6;#22d3ee" dur="7s" repeatCount="indefinite"/></stop></linearGradient>
<linearGradient id="s" x2="1" y2="1"><stop stop-color="#08001c"/><stop offset=".55" stop-color="#160b3d"/><stop offset="1" stop-color="#020617"/></linearGradient>
<filter id="g"><feGaussianBlur stdDeviation="4" result="b"/><feMerge><feMergeNode in="b"/><feMergeNode in="SourceGraphic"/></feMerge></filter>
<pattern id="scan" width="6" height="6" patternUnits="userSpaceOnUse"><rect width="6" height="1" fill="white" opacity=".035"/></pattern>
</defs>
<rect width="1180" height="540" rx="28" fill="url(#s)"/>
<circle cx="970" cy="90" r="52" fill="#fff7fd" opacity=".9"/><circle cx="949" cy="77" r="52" fill="#10082b"/>
<g fill="white"><circle cx="90" cy="70" r="2"><animate attributeName="opacity" values=".1;1;.1" dur="2.5s" repeatCount="indefinite"/></circle><circle cx="260" cy="100" r="1.5"><animate attributeName="opacity" values="1;.2;1" dur="3s" repeatCount="indefinite"/></circle><circle cx="770" cy="55" r="1.8"><animate attributeName="opacity" values=".2;1;.2" dur="2.2s" repeatCount="indefinite"/></circle></g>
<g fill="#050816"><rect x="0" y="375" width="125" height="165"/><rect x="110" y="330" width="90" height="210"/><rect x="185" y="370" width="120" height="170"/><rect x="290" y="305" width="85" height="235"/><rect x="360" y="350" width="150" height="190"/><rect x="495" y="290" width="95" height="250"/><rect x="575" y="345" width="145" height="195"/><rect x="705" y="300" width="110" height="240"/><rect x="800" y="355" width="150" height="185"/><rect x="935" y="320" width="105" height="220"/><rect x="1025" y="375" width="155" height="165"/></g>
<g fill="#22d3ee" opacity=".7"><rect x="130" y="350" width="5" height="38"/><rect x="150" y="350" width="5" height="38"/><rect x="310" y="325" width="5" height="60"/><rect x="335" y="325" width="5" height="60"/><rect x="515" y="310" width="6" height="55"/><rect x="540" y="310" width="6" height="55"/><rect x="725" y="320" width="5" height="45"/></g>
<rect x="700" y="190" width="170" height="76" rx="8" fill="#09001f" stroke="#ff4fd8" stroke-width="3" filter="url(#g)"/><text x="785" y="240" text-anchor="middle" fill="#ff4fd8" font-family="sans-serif" font-size="32" font-weight="700" filter="url(#g)">未来</text>
<g transform="translate(75 245)"><circle cx="145" cy="62" r="39" fill="#111026" stroke="#22d3ee" stroke-width="2"/><path d="M105 58Q145 25 188 50L176 63Q145 50 114 72Z" fill="#ff4fd8" opacity=".8"/><path d="M92 142L190 142L222 232L55 232Z" fill="#070812" stroke="#8b5cf6" stroke-width="3"/><rect x="118" y="165" width="58" height="42" rx="6" fill="#02030a" stroke="#22d3ee" stroke-width="3"/><line x1="127" y1="177" x2="166" y2="177" stroke="#22d3ee" stroke-width="2"><animate attributeName="x2" values="145;166;145" dur="2s" repeatCount="indefinite"/></line><line x1="127" y1="187" x2="154" y2="187" stroke="#ff4fd8" stroke-width="2"><animate attributeName="x2" values="154;165;154" dur="2.6s" repeatCount="indefinite"/></line></g>
<rect x="355" y="55" width="735" height="292" rx="24" fill="#020617" opacity=".78" stroke="url(#n)" stroke-width="2"/>
<text x="405" y="105" fill="#ffb4ec" font-family="monospace" font-size="16">こんにちは • WELCOME TO MY DIGITAL WORLD</text>
<text x="405" y="158" fill="#f8fafc" font-family="Arial,sans-serif" font-size="43" font-weight="700">BALAVISHVAS</text>
<text x="405" y="198" fill="url(#n)" font-family="monospace" font-size="25" filter="url(#g)">AI ENGINEER</text>
<text x="405" y="240" fill="#dbeafe" font-family="monospace" font-size="18">&gt; Generative AI • Python • Agentic Systems</text>
<text x="405" y="270" fill="#dbeafe" font-family="monospace" font-size="18">&gt; LangChain • LangGraph • FastAPI</text>
<text x="405" y="300" fill="#dbeafe" font-family="monospace" font-size="18">&gt; Building ideas from code into reality_</text>
<rect x="405" y="320" width="8" height="22" fill="#ff4fd8"><animate attributeName="opacity" values="1;0;1" dur=".85s" repeatCount="indefinite"/></rect>
<g fill="#ff9de6" opacity=".8"><path d="M250 70q12-10 20 2q-8 11-20-2"><animateTransform attributeName="transform" type="translate" values="0 0;35 260;90 470" dur="8s" repeatCount="indefinite"/></path><path d="M470 20q12-10 20 2q-8 11-20-2"><animateTransform attributeName="transform" type="translate" values="0 0;-40 250;-10 500" dur="9s" repeatCount="indefinite"/></path><path d="M1040 145q12-10 20 2q-8 11-20-2"><animateTransform attributeName="transform" type="translate" values="0 0;-60 220;-180 410" dur="7s" repeatCount="indefinite"/></path></g>
<path d="M0 480Q590 420 1180 480V540H0Z" fill="#02030a"/><path d="M0 486Q590 423 1180 486" fill="none" stroke="url(#n)" stroke-width="3" opacity=".8" filter="url(#g)"/><rect width="1180" height="540" rx="28" fill="url(#scan)"/>
</svg>